# xmcd
#
# Track frame offsets:
#	150
#	16536
#	34031
#	53926
#	73359
#	105466
#	150668
#	175902
#	204071
#	226954
#
# Disc length: 3548 seconds
#
# Revision: 1
# Processed by: cddbd v1.5.2PL0 Copyright (c) Steve Scherf et al.
# Submitted via: audiograbber 1.83.01
#
DISCID=740dda0a
DTITLE=Grateful Dead - 69-12-19 Fillmore West, San Francisco CA
DYEAR=1900
DGENRE=
TTITLE0=Monkey and The Engineer
TTITLE1=Little Sadie
TTITLE2=Long Black Limousine
TTITLE3=All Around This World
TTITLE4=Mason's Children
TTITLE5=Black Peter
TTITLE6=Hard To Handle
TTITLE7=Cumberland Blues
TTITLE8=Casey Jones
TTITLE9=Good Lovin
EXTD=
EXTT0=
EXTT1=
EXTT2=
EXTT3=
EXTT4=
EXTT5=
EXTT6=
EXTT7=
EXTT8=
EXTT9=
PLAYORDER=
